<mxfile host="Electron" modified="2023-09-13T17:10:17.083Z" agent="Mozilla/5.0 (Windows NT 10.0; Win64; x64) AppleWebKit/537.36 (KHTML, like Gecko) draw.io/21.2.8 Chrome/112.0.5615.165 Electron/24.2.0 Safari/537.36" etag="h5QdKFHC0GwOxLjvkJEC" version="21.2.8" type="device" pages="2">
  <diagram name="统一语法适配中心服务" id="fn70xEstUlvAZ-K3JBXv">
    <mxGraphModel dx="2058" dy="1188" grid="1" gridSize="10" guides="1" tooltips="1" connect="1" arrows="1" fold="1" page="1" pageScale="1" pageWidth="827" pageHeight="1169" math="0" shadow="0">
      <root>
        <mxCell id="0" />
        <mxCell id="1" parent="0" />
        <mxCell id="DDXnVx1RsUqywB6m5aDD-2" value="" style="rounded=0;whiteSpace=wrap;html=1;" parent="1" vertex="1">
          <mxGeometry x="160" y="100" width="1910" height="1130" as="geometry" />
        </mxCell>
        <mxCell id="DDXnVx1RsUqywB6m5aDD-3" value="" style="rounded=0;whiteSpace=wrap;html=1;" parent="1" vertex="1">
          <mxGeometry x="290" y="420" width="1430" height="190" as="geometry" />
        </mxCell>
        <mxCell id="DDXnVx1RsUqywB6m5aDD-5" value="&lt;font style=&quot;font-size: 18px;&quot;&gt;SpringBoot框架&lt;/font&gt;" style="rounded=0;whiteSpace=wrap;html=1;" parent="1" vertex="1">
          <mxGeometry x="1060" y="450" width="270" height="60" as="geometry" />
        </mxCell>
        <mxCell id="DDXnVx1RsUqywB6m5aDD-6" value="&lt;font style=&quot;font-size: 18px;&quot;&gt;MyBatis Plus框架&lt;/font&gt;" style="rounded=0;whiteSpace=wrap;html=1;" parent="1" vertex="1">
          <mxGeometry x="770" y="450" width="230" height="55" as="geometry" />
        </mxCell>
        <mxCell id="DDXnVx1RsUqywB6m5aDD-15" style="edgeStyle=orthogonalEdgeStyle;rounded=0;orthogonalLoop=1;jettySize=auto;html=1;exitX=0.5;exitY=1;exitDx=0;exitDy=0;entryX=0.5;entryY=0;entryDx=0;entryDy=0;" parent="1" source="DDXnVx1RsUqywB6m5aDD-7" target="DDXnVx1RsUqywB6m5aDD-8" edge="1">
          <mxGeometry relative="1" as="geometry" />
        </mxCell>
        <mxCell id="DDXnVx1RsUqywB6m5aDD-7" value="&lt;font style=&quot;font-size: 18px;&quot;&gt;数据库驱动SPI&lt;/font&gt;" style="rounded=0;whiteSpace=wrap;html=1;" parent="1" vertex="1">
          <mxGeometry x="705" y="540" width="150" height="50" as="geometry" />
        </mxCell>
        <mxCell id="DDXnVx1RsUqywB6m5aDD-39" style="edgeStyle=orthogonalEdgeStyle;rounded=0;orthogonalLoop=1;jettySize=auto;html=1;exitX=0.25;exitY=1;exitDx=0;exitDy=0;" parent="1" source="DDXnVx1RsUqywB6m5aDD-8" edge="1">
          <mxGeometry relative="1" as="geometry">
            <mxPoint x="1040" y="1080" as="targetPoint" />
          </mxGeometry>
        </mxCell>
        <mxCell id="DDXnVx1RsUqywB6m5aDD-8" value="&lt;font style=&quot;font-size: 18px;&quot;&gt;MySql驱动&lt;br&gt;Oracle驱动&lt;br&gt;MongoDB驱动&lt;br&gt;等等驱动&lt;br&gt;Gaussdb驱动&lt;/font&gt;" style="rounded=0;whiteSpace=wrap;html=1;" parent="1" vertex="1">
          <mxGeometry x="620" y="670" width="320" height="120" as="geometry" />
        </mxCell>
        <mxCell id="DDXnVx1RsUqywB6m5aDD-38" style="edgeStyle=orthogonalEdgeStyle;rounded=0;orthogonalLoop=1;jettySize=auto;html=1;exitX=0.5;exitY=1;exitDx=0;exitDy=0;" parent="1" source="DDXnVx1RsUqywB6m5aDD-10" edge="1">
          <mxGeometry relative="1" as="geometry">
            <mxPoint x="1040" y="1080" as="targetPoint" />
          </mxGeometry>
        </mxCell>
        <mxCell id="DDXnVx1RsUqywB6m5aDD-10" value="&lt;span style=&quot;font-size: 18px;&quot;&gt;GuassDB切换Mysql语法&lt;br&gt;MySql切换Oracle语法&lt;br&gt;等等&lt;br&gt;Mysql切换MongoDB语法&lt;br&gt;&lt;/span&gt;" style="rounded=0;whiteSpace=wrap;html=1;" parent="1" vertex="1">
          <mxGeometry x="229" y="670" width="370" height="120" as="geometry" />
        </mxCell>
        <mxCell id="DDXnVx1RsUqywB6m5aDD-17" style="edgeStyle=orthogonalEdgeStyle;rounded=0;orthogonalLoop=1;jettySize=auto;html=1;exitX=0.5;exitY=1;exitDx=0;exitDy=0;entryX=0.5;entryY=0;entryDx=0;entryDy=0;" parent="1" source="DDXnVx1RsUqywB6m5aDD-11" target="DDXnVx1RsUqywB6m5aDD-10" edge="1">
          <mxGeometry relative="1" as="geometry" />
        </mxCell>
        <mxCell id="DDXnVx1RsUqywB6m5aDD-11" value="&lt;font style=&quot;font-size: 18px;&quot;&gt;drools语法规则配置&lt;/font&gt;" style="rounded=0;whiteSpace=wrap;html=1;" parent="1" vertex="1">
          <mxGeometry x="414" y="550" width="160" height="50" as="geometry" />
        </mxCell>
        <mxCell id="DDXnVx1RsUqywB6m5aDD-14" value="&lt;font style=&quot;font-size: 18px;&quot;&gt;SpringCloud框架&lt;/font&gt;" style="rounded=0;whiteSpace=wrap;html=1;" parent="1" vertex="1">
          <mxGeometry x="1410" y="440" width="220" height="70" as="geometry" />
        </mxCell>
        <mxCell id="DDXnVx1RsUqywB6m5aDD-18" style="edgeStyle=orthogonalEdgeStyle;rounded=0;orthogonalLoop=1;jettySize=auto;html=1;exitX=0.5;exitY=1;exitDx=0;exitDy=0;entryX=0.25;entryY=0;entryDx=0;entryDy=0;" parent="1" source="DDXnVx1RsUqywB6m5aDD-16" target="DDXnVx1RsUqywB6m5aDD-10" edge="1">
          <mxGeometry relative="1" as="geometry">
            <Array as="points">
              <mxPoint x="370" y="490" />
              <mxPoint x="370" y="580" />
              <mxPoint x="322" y="580" />
            </Array>
          </mxGeometry>
        </mxCell>
        <mxCell id="DDXnVx1RsUqywB6m5aDD-16" value="&lt;span style=&quot;font-size: 18px;&quot;&gt;AST语法树框架&lt;/span&gt;" style="rounded=0;whiteSpace=wrap;html=1;" parent="1" vertex="1">
          <mxGeometry x="320" y="450" width="180" height="55" as="geometry" />
        </mxCell>
        <mxCell id="DDXnVx1RsUqywB6m5aDD-22" style="edgeStyle=orthogonalEdgeStyle;rounded=0;orthogonalLoop=1;jettySize=auto;html=1;exitX=0.5;exitY=1;exitDx=0;exitDy=0;" parent="1" source="DDXnVx1RsUqywB6m5aDD-20" target="DDXnVx1RsUqywB6m5aDD-21" edge="1">
          <mxGeometry relative="1" as="geometry" />
        </mxCell>
        <mxCell id="DDXnVx1RsUqywB6m5aDD-20" value="&lt;span style=&quot;font-size: 18px;&quot;&gt;classLoader代码热加载技术&lt;/span&gt;" style="rounded=0;whiteSpace=wrap;html=1;" parent="1" vertex="1">
          <mxGeometry x="960" y="535" width="200" height="50" as="geometry" />
        </mxCell>
        <mxCell id="DDXnVx1RsUqywB6m5aDD-24" style="edgeStyle=orthogonalEdgeStyle;rounded=0;orthogonalLoop=1;jettySize=auto;html=1;exitX=1;exitY=0.5;exitDx=0;exitDy=0;entryX=0.5;entryY=1;entryDx=0;entryDy=0;" parent="1" source="DDXnVx1RsUqywB6m5aDD-21" target="DDXnVx1RsUqywB6m5aDD-23" edge="1">
          <mxGeometry relative="1" as="geometry" />
        </mxCell>
        <mxCell id="DDXnVx1RsUqywB6m5aDD-40" style="edgeStyle=orthogonalEdgeStyle;rounded=0;orthogonalLoop=1;jettySize=auto;html=1;exitX=0.5;exitY=1;exitDx=0;exitDy=0;entryX=0.504;entryY=0.011;entryDx=0;entryDy=0;entryPerimeter=0;" parent="1" source="DDXnVx1RsUqywB6m5aDD-21" target="DDXnVx1RsUqywB6m5aDD-37" edge="1">
          <mxGeometry relative="1" as="geometry" />
        </mxCell>
        <mxCell id="DDXnVx1RsUqywB6m5aDD-21" value="&lt;font style=&quot;font-size: 18px;&quot;&gt;MySql解析json自定义函数&lt;br&gt;GaussDB解析Geojson自定义函数&lt;br&gt;等等&lt;br&gt;Oracle解析json自定义函数&lt;br&gt;&lt;/font&gt;" style="rounded=0;whiteSpace=wrap;html=1;" parent="1" vertex="1">
          <mxGeometry x="960" y="670" width="330" height="120" as="geometry" />
        </mxCell>
        <mxCell id="DDXnVx1RsUqywB6m5aDD-23" value="&lt;font style=&quot;font-size: 18px;&quot;&gt;统一数据源管理&lt;/font&gt;" style="rounded=0;whiteSpace=wrap;html=1;" parent="1" vertex="1">
          <mxGeometry x="1250" y="535" width="169" height="60" as="geometry" />
        </mxCell>
        <mxCell id="DDXnVx1RsUqywB6m5aDD-28" style="edgeStyle=orthogonalEdgeStyle;rounded=0;orthogonalLoop=1;jettySize=auto;html=1;exitX=0.75;exitY=1;exitDx=0;exitDy=0;entryX=0.475;entryY=0.992;entryDx=0;entryDy=0;entryPerimeter=0;" parent="1" source="DDXnVx1RsUqywB6m5aDD-26" target="DDXnVx1RsUqywB6m5aDD-8" edge="1">
          <mxGeometry relative="1" as="geometry">
            <Array as="points">
              <mxPoint x="1427" y="820" />
              <mxPoint x="772" y="820" />
            </Array>
          </mxGeometry>
        </mxCell>
        <mxCell id="DDXnVx1RsUqywB6m5aDD-26" value="&lt;font style=&quot;font-size: 18px;&quot;&gt;MyBatis Plus&lt;br&gt;SpringData JPA&lt;br&gt;Hibernate&lt;/font&gt;" style="rounded=1;whiteSpace=wrap;html=1;" parent="1" vertex="1">
          <mxGeometry x="1340" y="620" width="171" height="60" as="geometry" />
        </mxCell>
        <mxCell id="DDXnVx1RsUqywB6m5aDD-27" value="注册" style="text;html=1;strokeColor=none;fillColor=none;align=center;verticalAlign=middle;whiteSpace=wrap;rounded=0;" parent="1" vertex="1">
          <mxGeometry x="1310" y="740" width="60" height="30" as="geometry" />
        </mxCell>
        <mxCell id="DDXnVx1RsUqywB6m5aDD-29" value="&lt;font style=&quot;font-size: 18px;&quot;&gt;加载对应类型数据驱动&lt;/font&gt;" style="text;html=1;strokeColor=none;fillColor=none;align=center;verticalAlign=middle;whiteSpace=wrap;rounded=0;" parent="1" vertex="1">
          <mxGeometry x="1210" y="820" width="230" height="40" as="geometry" />
        </mxCell>
        <mxCell id="DDXnVx1RsUqywB6m5aDD-33" style="edgeStyle=orthogonalEdgeStyle;rounded=0;orthogonalLoop=1;jettySize=auto;html=1;exitX=0.5;exitY=1;exitDx=0;exitDy=0;" parent="1" source="DDXnVx1RsUqywB6m5aDD-30" target="DDXnVx1RsUqywB6m5aDD-32" edge="1">
          <mxGeometry relative="1" as="geometry" />
        </mxCell>
        <mxCell id="DDXnVx1RsUqywB6m5aDD-30" value="&lt;span style=&quot;font-size: 18px;&quot;&gt;classLoader插件加载&lt;/span&gt;" style="rounded=0;whiteSpace=wrap;html=1;" parent="1" vertex="1">
          <mxGeometry x="1520" y="535" width="169" height="60" as="geometry" />
        </mxCell>
        <mxCell id="DDXnVx1RsUqywB6m5aDD-36" style="edgeStyle=orthogonalEdgeStyle;rounded=0;orthogonalLoop=1;jettySize=auto;html=1;exitX=0.5;exitY=1;exitDx=0;exitDy=0;" parent="1" source="DDXnVx1RsUqywB6m5aDD-32" target="DDXnVx1RsUqywB6m5aDD-34" edge="1">
          <mxGeometry relative="1" as="geometry" />
        </mxCell>
        <mxCell id="DDXnVx1RsUqywB6m5aDD-32" value="&lt;span style=&quot;font-size: 18px;&quot;&gt;ClassLaoder加载Java&lt;br&gt;PythonInterpreter加载python&lt;br&gt;ScirptEngineManager加载JavaScript&lt;br&gt;Native.loadLibary()调用其它语言&lt;br&gt;&lt;/span&gt;" style="rounded=0;whiteSpace=wrap;html=1;" parent="1" vertex="1">
          <mxGeometry x="1500" y="700" width="320" height="120" as="geometry" />
        </mxCell>
        <mxCell id="DDXnVx1RsUqywB6m5aDD-41" style="edgeStyle=orthogonalEdgeStyle;rounded=0;orthogonalLoop=1;jettySize=auto;html=1;exitX=0;exitY=0.5;exitDx=0;exitDy=0;" parent="1" source="DDXnVx1RsUqywB6m5aDD-34" edge="1">
          <mxGeometry relative="1" as="geometry">
            <mxPoint x="1040" y="1080" as="targetPoint" />
            <Array as="points">
              <mxPoint x="1500" y="940" />
              <mxPoint x="1041" y="940" />
            </Array>
          </mxGeometry>
        </mxCell>
        <mxCell id="DDXnVx1RsUqywB6m5aDD-34" value="&lt;font style=&quot;font-size: 18px;&quot;&gt;Java扩展插件&lt;br&gt;JavaScript扩展插件&lt;br&gt;Python扩展插件&lt;br&gt;其它语言扩展插件&lt;/font&gt;" style="rounded=0;whiteSpace=wrap;html=1;" parent="1" vertex="1">
          <mxGeometry x="1500" y="890" width="320" height="120" as="geometry" />
        </mxCell>
        <mxCell id="DDXnVx1RsUqywB6m5aDD-37" value="&lt;font style=&quot;font-size: 18px;&quot;&gt;统一语法适配中心 Web界面&lt;/font&gt;" style="rounded=0;whiteSpace=wrap;html=1;" parent="1" vertex="1">
          <mxGeometry x="240" y="1090" width="1590" height="90" as="geometry" />
        </mxCell>
        <mxCell id="DDXnVx1RsUqywB6m5aDD-42" value="&lt;font style=&quot;font-size: 18px;&quot;&gt;web界面统一扩展和管理&lt;/font&gt;" style="rounded=1;whiteSpace=wrap;html=1;" parent="1" vertex="1">
          <mxGeometry x="1050" y="1000" width="215" height="60" as="geometry" />
        </mxCell>
        <mxCell id="DDXnVx1RsUqywB6m5aDD-43" value="&lt;span style=&quot;font-size: 18px;&quot;&gt;drools规则引擎&lt;/span&gt;" style="rounded=0;whiteSpace=wrap;html=1;" parent="1" vertex="1">
          <mxGeometry x="520" y="450" width="230" height="55" as="geometry" />
        </mxCell>
        <mxCell id="DDXnVx1RsUqywB6m5aDD-47" style="edgeStyle=orthogonalEdgeStyle;rounded=0;orthogonalLoop=1;jettySize=auto;html=1;exitX=0.5;exitY=1;exitDx=0;exitDy=0;" parent="1" source="DDXnVx1RsUqywB6m5aDD-44" target="DDXnVx1RsUqywB6m5aDD-46" edge="1">
          <mxGeometry relative="1" as="geometry" />
        </mxCell>
        <mxCell id="DDXnVx1RsUqywB6m5aDD-44" value="&lt;font style=&quot;font-size: 18px;&quot;&gt;Java的开发系统业务A&lt;br&gt;(MySql切换Mongo)&lt;br&gt;&lt;/font&gt;" style="ellipse;whiteSpace=wrap;html=1;" parent="1" vertex="1">
          <mxGeometry x="750" y="110" width="211" height="100" as="geometry" />
        </mxCell>
        <mxCell id="DDXnVx1RsUqywB6m5aDD-48" style="edgeStyle=orthogonalEdgeStyle;rounded=0;orthogonalLoop=1;jettySize=auto;html=1;exitX=0.5;exitY=1;exitDx=0;exitDy=0;" parent="1" source="DDXnVx1RsUqywB6m5aDD-45" target="DDXnVx1RsUqywB6m5aDD-46" edge="1">
          <mxGeometry relative="1" as="geometry" />
        </mxCell>
        <mxCell id="DDXnVx1RsUqywB6m5aDD-45" value="&lt;font style=&quot;font-size: 18px;&quot;&gt;Python开发的系统业务B&lt;br&gt;(Gaussdb切换Mysql)&lt;br&gt;&lt;/font&gt;" style="ellipse;whiteSpace=wrap;html=1;" parent="1" vertex="1">
          <mxGeometry x="1150" y="110" width="211" height="100" as="geometry" />
        </mxCell>
        <mxCell id="DDXnVx1RsUqywB6m5aDD-51" style="edgeStyle=orthogonalEdgeStyle;rounded=0;orthogonalLoop=1;jettySize=auto;html=1;exitX=0.5;exitY=1;exitDx=0;exitDy=0;entryX=0.625;entryY=0.2;entryDx=0;entryDy=0;entryPerimeter=0;" parent="1" source="DDXnVx1RsUqywB6m5aDD-46" target="DDXnVx1RsUqywB6m5aDD-50" edge="1">
          <mxGeometry relative="1" as="geometry" />
        </mxCell>
        <mxCell id="DDXnVx1RsUqywB6m5aDD-46" value="&lt;font style=&quot;font-size: 18px;&quot;&gt;Java Agent / JavaScritp Agent / Python Agent 对应系统的Agent代码增强框架; 拦截SQL&lt;/font&gt;" style="rounded=0;whiteSpace=wrap;html=1;" parent="1" vertex="1">
          <mxGeometry x="690" y="250" width="781.5" height="70" as="geometry" />
        </mxCell>
        <mxCell id="DDXnVx1RsUqywB6m5aDD-52" style="edgeStyle=orthogonalEdgeStyle;rounded=0;orthogonalLoop=1;jettySize=auto;html=1;exitX=0.55;exitY=0.95;exitDx=0;exitDy=0;exitPerimeter=0;entryX=0.57;entryY=-0.005;entryDx=0;entryDy=0;entryPerimeter=0;" parent="1" source="DDXnVx1RsUqywB6m5aDD-50" target="DDXnVx1RsUqywB6m5aDD-3" edge="1">
          <mxGeometry relative="1" as="geometry" />
        </mxCell>
        <mxCell id="DDXnVx1RsUqywB6m5aDD-50" value="&lt;font style=&quot;font-size: 18px;&quot;&gt;Http/Rpc/grpc/SDK集成包&lt;/font&gt;" style="ellipse;shape=cloud;whiteSpace=wrap;html=1;" parent="1" vertex="1">
          <mxGeometry x="901" y="320" width="340" height="90" as="geometry" />
        </mxCell>
        <mxCell id="DDXnVx1RsUqywB6m5aDD-53" value="&lt;font style=&quot;font-size: 18px;&quot;&gt;统一语法适配中心&lt;/font&gt;" style="text;html=1;strokeColor=none;fillColor=none;align=center;verticalAlign=middle;whiteSpace=wrap;rounded=0;" parent="1" vertex="1">
          <mxGeometry x="180" y="450" width="100" height="120" as="geometry" />
        </mxCell>
        <mxCell id="DDXnVx1RsUqywB6m5aDD-55" style="edgeStyle=orthogonalEdgeStyle;rounded=0;orthogonalLoop=1;jettySize=auto;html=1;exitX=0.5;exitY=1;exitDx=0;exitDy=0;entryX=0.5;entryY=0;entryDx=0;entryDy=0;" parent="1" source="DDXnVx1RsUqywB6m5aDD-54" target="DDXnVx1RsUqywB6m5aDD-46" edge="1">
          <mxGeometry relative="1" as="geometry" />
        </mxCell>
        <mxCell id="DDXnVx1RsUqywB6m5aDD-54" value="&lt;font style=&quot;font-size: 18px;&quot;&gt;JavaScirpt开发的系统业务B&lt;br&gt;(Gaussdb切换Mysql)&lt;br&gt;&lt;/font&gt;" style="ellipse;whiteSpace=wrap;html=1;" parent="1" vertex="1">
          <mxGeometry x="1440" y="110" width="211" height="100" as="geometry" />
        </mxCell>
        <mxCell id="DDXnVx1RsUqywB6m5aDD-56" value="&lt;font style=&quot;font-size: 18px;&quot;&gt;JavaScirpt和Python开发的系统，是可以共享 Gaussdb转换mysql查询;&lt;br&gt;从而达到，一次适配，多个系统共享&lt;br&gt;&lt;/font&gt;" style="text;html=1;strokeColor=none;fillColor=none;align=center;verticalAlign=middle;whiteSpace=wrap;rounded=0;" parent="1" vertex="1">
          <mxGeometry x="1470" y="210" width="500" height="80" as="geometry" />
        </mxCell>
      </root>
    </mxGraphModel>
  </diagram>
  <diagram id="FFKdOUdO8X3L4GC8tUw_" name="统一语法适配中心-执行流程">
    <mxGraphModel dx="2058" dy="19" grid="1" gridSize="10" guides="1" tooltips="1" connect="1" arrows="1" fold="1" page="1" pageScale="1" pageWidth="827" pageHeight="1169" math="0" shadow="0">
      <root>
        <mxCell id="0" />
        <mxCell id="1" parent="0" />
        <mxCell id="WSpAf-qFc-sykkNFjlcr-3" style="edgeStyle=orthogonalEdgeStyle;rounded=0;orthogonalLoop=1;jettySize=auto;html=1;exitX=0.5;exitY=1;exitDx=0;exitDy=0;entryX=0.5;entryY=0;entryDx=0;entryDy=0;" edge="1" parent="1" source="WSpAf-qFc-sykkNFjlcr-1" target="WSpAf-qFc-sykkNFjlcr-2">
          <mxGeometry relative="1" as="geometry" />
        </mxCell>
        <mxCell id="WSpAf-qFc-sykkNFjlcr-1" value="&lt;font style=&quot;font-size: 18px;&quot;&gt;新增数据源类型以及数据源连接信息&lt;/font&gt;" style="rounded=0;whiteSpace=wrap;html=1;" vertex="1" parent="1">
          <mxGeometry x="990" y="1400" width="410" height="60" as="geometry" />
        </mxCell>
        <mxCell id="WSpAf-qFc-sykkNFjlcr-5" style="edgeStyle=orthogonalEdgeStyle;rounded=0;orthogonalLoop=1;jettySize=auto;html=1;exitX=0.5;exitY=1;exitDx=0;exitDy=0;entryX=0.5;entryY=0;entryDx=0;entryDy=0;" edge="1" parent="1" source="WSpAf-qFc-sykkNFjlcr-2" target="WSpAf-qFc-sykkNFjlcr-4">
          <mxGeometry relative="1" as="geometry" />
        </mxCell>
        <mxCell id="WSpAf-qFc-sykkNFjlcr-2" value="&lt;font style=&quot;font-size: 18px;&quot;&gt;新增数据源类型对应的驱动&lt;/font&gt;" style="rounded=0;whiteSpace=wrap;html=1;" vertex="1" parent="1">
          <mxGeometry x="990" y="1540" width="410" height="60" as="geometry" />
        </mxCell>
        <mxCell id="WSpAf-qFc-sykkNFjlcr-36" style="edgeStyle=orthogonalEdgeStyle;rounded=0;orthogonalLoop=1;jettySize=auto;html=1;exitX=0.5;exitY=1;exitDx=0;exitDy=0;entryX=0.5;entryY=0;entryDx=0;entryDy=0;" edge="1" parent="1" source="WSpAf-qFc-sykkNFjlcr-4" target="WSpAf-qFc-sykkNFjlcr-8">
          <mxGeometry relative="1" as="geometry" />
        </mxCell>
        <mxCell id="WSpAf-qFc-sykkNFjlcr-4" value="&lt;span style=&quot;font-size: 18px;&quot;&gt;通过drools语法规则，来进行 从一种数据库切换到另外一种数据库的类型;并且支持扩展和复用&lt;/span&gt;" style="rounded=0;whiteSpace=wrap;html=1;" vertex="1" parent="1">
          <mxGeometry x="990" y="1660" width="410" height="60" as="geometry" />
        </mxCell>
        <mxCell id="WSpAf-qFc-sykkNFjlcr-6" value="&lt;span style=&quot;font-size: 18px;&quot;&gt;通过web界面添加以及管理自定义函数;&lt;br&gt;使用ClassLoader热代码加载将自定义函数扩展到对应的数据源类型中&lt;br&gt;&lt;/span&gt;" style="rounded=0;whiteSpace=wrap;html=1;" vertex="1" parent="1">
          <mxGeometry x="985" y="1980" width="410" height="60" as="geometry" />
        </mxCell>
        <mxCell id="WSpAf-qFc-sykkNFjlcr-37" style="edgeStyle=orthogonalEdgeStyle;rounded=0;orthogonalLoop=1;jettySize=auto;html=1;exitX=0.5;exitY=1;exitDx=0;exitDy=0;" edge="1" parent="1" source="WSpAf-qFc-sykkNFjlcr-8">
          <mxGeometry relative="1" as="geometry">
            <mxPoint x="1195" y="1970" as="targetPoint" />
          </mxGeometry>
        </mxCell>
        <mxCell id="WSpAf-qFc-sykkNFjlcr-8" value="&lt;span style=&quot;font-size: 18px;&quot;&gt;通过web界面添加以及管理插件;使用如下执行不同语言的插件:&lt;br&gt;ClassLoader&lt;br&gt;PythonInterprter&lt;br&gt;ScriptEngineManager&lt;br&gt;Native.loadLibary()&lt;br&gt;&lt;/span&gt;" style="rounded=0;whiteSpace=wrap;html=1;" vertex="1" parent="1">
          <mxGeometry x="985" y="1780" width="420" height="130" as="geometry" />
        </mxCell>
        <mxCell id="WSpAf-qFc-sykkNFjlcr-24" style="edgeStyle=orthogonalEdgeStyle;rounded=0;orthogonalLoop=1;jettySize=auto;html=1;exitX=0.5;exitY=1;exitDx=0;exitDy=0;entryX=0.5;entryY=0;entryDx=0;entryDy=0;" edge="1" parent="1" source="WSpAf-qFc-sykkNFjlcr-11" target="WSpAf-qFc-sykkNFjlcr-23">
          <mxGeometry relative="1" as="geometry" />
        </mxCell>
        <mxCell id="WSpAf-qFc-sykkNFjlcr-11" value="&lt;font style=&quot;font-size: 18px;&quot;&gt;获取 Agent 上传上来的&amp;nbsp; SQL语句;数据库切换类型,需要使用的插件信息以及自定义函数&lt;/font&gt;" style="rounded=0;whiteSpace=wrap;html=1;" vertex="1" parent="1">
          <mxGeometry x="1500" y="1430" width="340" height="70" as="geometry" />
        </mxCell>
        <mxCell id="WSpAf-qFc-sykkNFjlcr-17" style="edgeStyle=orthogonalEdgeStyle;rounded=0;orthogonalLoop=1;jettySize=auto;html=1;exitX=0.16;exitY=0.55;exitDx=0;exitDy=0;exitPerimeter=0;" edge="1" parent="1" source="WSpAf-qFc-sykkNFjlcr-12" target="WSpAf-qFc-sykkNFjlcr-16">
          <mxGeometry relative="1" as="geometry">
            <Array as="points">
              <mxPoint x="2340" y="1452" />
              <mxPoint x="2340" y="1655" />
            </Array>
          </mxGeometry>
        </mxCell>
        <mxCell id="WSpAf-qFc-sykkNFjlcr-12" value="&lt;font style=&quot;font-size: 18px;&quot;&gt;业务系统A&lt;br&gt;(Java)&lt;br&gt;&lt;/font&gt;" style="ellipse;shape=cloud;whiteSpace=wrap;html=1;" vertex="1" parent="1">
          <mxGeometry x="2360" y="1380" width="180" height="130" as="geometry" />
        </mxCell>
        <mxCell id="WSpAf-qFc-sykkNFjlcr-18" style="edgeStyle=orthogonalEdgeStyle;rounded=0;orthogonalLoop=1;jettySize=auto;html=1;exitX=0.16;exitY=0.55;exitDx=0;exitDy=0;exitPerimeter=0;entryX=1;entryY=0.5;entryDx=0;entryDy=0;" edge="1" parent="1" source="WSpAf-qFc-sykkNFjlcr-13" target="WSpAf-qFc-sykkNFjlcr-16">
          <mxGeometry relative="1" as="geometry" />
        </mxCell>
        <mxCell id="WSpAf-qFc-sykkNFjlcr-13" value="&lt;font style=&quot;font-size: 18px;&quot;&gt;业务系统B&lt;br&gt;(Python)&lt;br&gt;&lt;/font&gt;" style="ellipse;shape=cloud;whiteSpace=wrap;html=1;" vertex="1" parent="1">
          <mxGeometry x="2370" y="1570" width="180" height="130" as="geometry" />
        </mxCell>
        <mxCell id="WSpAf-qFc-sykkNFjlcr-19" style="edgeStyle=orthogonalEdgeStyle;rounded=0;orthogonalLoop=1;jettySize=auto;html=1;exitX=0.16;exitY=0.55;exitDx=0;exitDy=0;exitPerimeter=0;entryX=1;entryY=0.5;entryDx=0;entryDy=0;" edge="1" parent="1" source="WSpAf-qFc-sykkNFjlcr-14" target="WSpAf-qFc-sykkNFjlcr-16">
          <mxGeometry relative="1" as="geometry">
            <Array as="points">
              <mxPoint x="2340" y="1826" />
              <mxPoint x="2340" y="1655" />
            </Array>
          </mxGeometry>
        </mxCell>
        <mxCell id="WSpAf-qFc-sykkNFjlcr-14" value="&lt;font style=&quot;font-size: 18px;&quot;&gt;业务系统C&lt;br&gt;(JavaScript)&lt;br&gt;&lt;/font&gt;" style="ellipse;shape=cloud;whiteSpace=wrap;html=1;" vertex="1" parent="1">
          <mxGeometry x="2380" y="1754" width="180" height="130" as="geometry" />
        </mxCell>
        <mxCell id="WSpAf-qFc-sykkNFjlcr-21" style="edgeStyle=orthogonalEdgeStyle;rounded=0;orthogonalLoop=1;jettySize=auto;html=1;exitX=0;exitY=0.5;exitDx=0;exitDy=0;entryX=1;entryY=0.5;entryDx=0;entryDy=0;" edge="1" parent="1" source="WSpAf-qFc-sykkNFjlcr-16" target="WSpAf-qFc-sykkNFjlcr-20">
          <mxGeometry relative="1" as="geometry" />
        </mxCell>
        <mxCell id="WSpAf-qFc-sykkNFjlcr-16" value="&lt;font style=&quot;font-size: 18px;&quot;&gt;Java Agent&lt;br&gt;&lt;br&gt;&lt;br&gt;&lt;br&gt;&lt;br&gt;&lt;br&gt;Python Agent&lt;br&gt;&lt;br&gt;&lt;br&gt;&lt;br&gt;&lt;br&gt;&lt;br&gt;&lt;br&gt;JavaScript Agent&lt;/font&gt;" style="rounded=0;whiteSpace=wrap;html=1;" vertex="1" parent="1">
          <mxGeometry x="2150" y="1417.5" width="160" height="490" as="geometry" />
        </mxCell>
        <mxCell id="WSpAf-qFc-sykkNFjlcr-22" style="edgeStyle=orthogonalEdgeStyle;rounded=0;orthogonalLoop=1;jettySize=auto;html=1;exitX=0.5;exitY=0;exitDx=0;exitDy=0;entryX=1;entryY=0.5;entryDx=0;entryDy=0;" edge="1" parent="1" source="WSpAf-qFc-sykkNFjlcr-20" target="WSpAf-qFc-sykkNFjlcr-11">
          <mxGeometry relative="1" as="geometry" />
        </mxCell>
        <mxCell id="WSpAf-qFc-sykkNFjlcr-47" style="edgeStyle=orthogonalEdgeStyle;rounded=0;orthogonalLoop=1;jettySize=auto;html=1;exitX=0.5;exitY=1;exitDx=0;exitDy=0;" edge="1" parent="1" source="WSpAf-qFc-sykkNFjlcr-20">
          <mxGeometry relative="1" as="geometry">
            <mxPoint x="2018" y="1810" as="targetPoint" />
          </mxGeometry>
        </mxCell>
        <mxCell id="ExCV35i1Uj6hNEHXc7iW-2" style="edgeStyle=orthogonalEdgeStyle;rounded=0;orthogonalLoop=1;jettySize=auto;html=1;exitX=1;exitY=1;exitDx=0;exitDy=0;" edge="1" parent="1" source="WSpAf-qFc-sykkNFjlcr-20">
          <mxGeometry relative="1" as="geometry">
            <mxPoint x="2120" y="2150" as="targetPoint" />
          </mxGeometry>
        </mxCell>
        <mxCell id="WSpAf-qFc-sykkNFjlcr-20" value="&lt;font style=&quot;font-size: 18px;&quot;&gt;Http 通信协议&lt;br&gt;grpc 通信协议&lt;br&gt;rpc 通信协议&lt;br&gt;SDK集成包&lt;/font&gt;" style="ellipse;whiteSpace=wrap;html=1;aspect=fixed;" vertex="1" parent="1">
          <mxGeometry x="1940" y="1585" width="155" height="155" as="geometry" />
        </mxCell>
        <mxCell id="WSpAf-qFc-sykkNFjlcr-26" style="edgeStyle=orthogonalEdgeStyle;rounded=0;orthogonalLoop=1;jettySize=auto;html=1;exitX=0.5;exitY=1;exitDx=0;exitDy=0;" edge="1" parent="1" source="WSpAf-qFc-sykkNFjlcr-23">
          <mxGeometry relative="1" as="geometry">
            <mxPoint x="1670" y="1710" as="targetPoint" />
          </mxGeometry>
        </mxCell>
        <mxCell id="WSpAf-qFc-sykkNFjlcr-23" value="&lt;font style=&quot;font-size: 18px;&quot;&gt;将SQL语句通过AST语法树框架,转化成树结构的数据&lt;/font&gt;" style="rounded=0;whiteSpace=wrap;html=1;" vertex="1" parent="1">
          <mxGeometry x="1500" y="1570" width="340" height="70" as="geometry" />
        </mxCell>
        <mxCell id="WSpAf-qFc-sykkNFjlcr-27" style="edgeStyle=orthogonalEdgeStyle;rounded=0;orthogonalLoop=1;jettySize=auto;html=1;exitX=0;exitY=0.5;exitDx=0;exitDy=0;entryX=1;entryY=0.5;entryDx=0;entryDy=0;" edge="1" parent="1" source="WSpAf-qFc-sykkNFjlcr-25" target="WSpAf-qFc-sykkNFjlcr-4">
          <mxGeometry relative="1" as="geometry" />
        </mxCell>
        <mxCell id="WSpAf-qFc-sykkNFjlcr-30" style="edgeStyle=orthogonalEdgeStyle;rounded=0;orthogonalLoop=1;jettySize=auto;html=1;exitX=0.5;exitY=1;exitDx=0;exitDy=0;" edge="1" parent="1" source="WSpAf-qFc-sykkNFjlcr-25">
          <mxGeometry relative="1" as="geometry">
            <mxPoint x="1680" y="1870" as="targetPoint" />
          </mxGeometry>
        </mxCell>
        <mxCell id="WSpAf-qFc-sykkNFjlcr-25" value="&lt;span style=&quot;font-size: 18px;&quot;&gt;根据Agent中数据库需要切换的类型；从语法规则中获取规则;&lt;br&gt;如果是一种转换为多种不同类型的数据库，会链式调用依次转换&lt;br&gt;&lt;/span&gt;" style="rounded=0;whiteSpace=wrap;html=1;" vertex="1" parent="1">
          <mxGeometry x="1500" y="1720" width="360" height="100" as="geometry" />
        </mxCell>
        <mxCell id="WSpAf-qFc-sykkNFjlcr-28" value="&lt;font style=&quot;font-size: 18px;&quot;&gt;获取转换规则&lt;/font&gt;" style="text;html=1;strokeColor=none;fillColor=none;align=center;verticalAlign=middle;whiteSpace=wrap;rounded=0;" vertex="1" parent="1">
          <mxGeometry x="1420" y="1660" width="140" height="50" as="geometry" />
        </mxCell>
        <mxCell id="WSpAf-qFc-sykkNFjlcr-32" style="edgeStyle=orthogonalEdgeStyle;rounded=0;orthogonalLoop=1;jettySize=auto;html=1;exitX=0.5;exitY=1;exitDx=0;exitDy=0;" edge="1" parent="1" source="WSpAf-qFc-sykkNFjlcr-29">
          <mxGeometry relative="1" as="geometry">
            <mxPoint x="1680" y="2010" as="targetPoint" />
          </mxGeometry>
        </mxCell>
        <mxCell id="WSpAf-qFc-sykkNFjlcr-29" value="&lt;span style=&quot;font-size: 18px;&quot;&gt;根据解析出来的对应的树结构；在利用AST语法树框架，将树结构的数据转成我们需要切换的数据库类型的语法&lt;br&gt;&lt;/span&gt;" style="rounded=0;whiteSpace=wrap;html=1;" vertex="1" parent="1">
          <mxGeometry x="1500" y="1884" width="360" height="80" as="geometry" />
        </mxCell>
        <mxCell id="WSpAf-qFc-sykkNFjlcr-33" style="edgeStyle=orthogonalEdgeStyle;rounded=0;orthogonalLoop=1;jettySize=auto;html=1;exitX=0;exitY=0.5;exitDx=0;exitDy=0;entryX=1;entryY=0.423;entryDx=0;entryDy=0;entryPerimeter=0;" edge="1" parent="1" source="WSpAf-qFc-sykkNFjlcr-31" target="WSpAf-qFc-sykkNFjlcr-8">
          <mxGeometry relative="1" as="geometry">
            <Array as="points">
              <mxPoint x="1470" y="2060" />
              <mxPoint x="1470" y="1835" />
            </Array>
          </mxGeometry>
        </mxCell>
        <mxCell id="WSpAf-qFc-sykkNFjlcr-38" style="edgeStyle=orthogonalEdgeStyle;rounded=0;orthogonalLoop=1;jettySize=auto;html=1;exitX=0.5;exitY=1;exitDx=0;exitDy=0;entryX=0.5;entryY=0;entryDx=0;entryDy=0;" edge="1" parent="1" source="WSpAf-qFc-sykkNFjlcr-31" target="WSpAf-qFc-sykkNFjlcr-35">
          <mxGeometry relative="1" as="geometry" />
        </mxCell>
        <mxCell id="WSpAf-qFc-sykkNFjlcr-31" value="&lt;span style=&quot;font-size: 18px;&quot;&gt;通过Agent中上传的插件信息,获取插件;&lt;br&gt;根据插件中的 语法识别，语法转换以及语法映射 来进行一个二次转换&lt;br&gt;&lt;/span&gt;" style="rounded=0;whiteSpace=wrap;html=1;" vertex="1" parent="1">
          <mxGeometry x="1500" y="2020" width="360" height="80" as="geometry" />
        </mxCell>
        <mxCell id="WSpAf-qFc-sykkNFjlcr-34" value="&lt;font style=&quot;font-size: 18px;&quot;&gt;获取插件&lt;/font&gt;" style="text;html=1;strokeColor=none;fillColor=none;align=center;verticalAlign=middle;whiteSpace=wrap;rounded=0;" vertex="1" parent="1">
          <mxGeometry x="1410" y="1930" width="90" height="50" as="geometry" />
        </mxCell>
        <mxCell id="WSpAf-qFc-sykkNFjlcr-40" style="edgeStyle=orthogonalEdgeStyle;rounded=0;orthogonalLoop=1;jettySize=auto;html=1;exitX=0;exitY=0.5;exitDx=0;exitDy=0;entryX=1;entryY=0.5;entryDx=0;entryDy=0;" edge="1" parent="1" source="WSpAf-qFc-sykkNFjlcr-35" target="WSpAf-qFc-sykkNFjlcr-6">
          <mxGeometry relative="1" as="geometry" />
        </mxCell>
        <mxCell id="WSpAf-qFc-sykkNFjlcr-43" style="edgeStyle=orthogonalEdgeStyle;rounded=0;orthogonalLoop=1;jettySize=auto;html=1;exitX=0.5;exitY=1;exitDx=0;exitDy=0;entryX=0.484;entryY=-0.067;entryDx=0;entryDy=0;entryPerimeter=0;" edge="1" parent="1" source="WSpAf-qFc-sykkNFjlcr-35" target="WSpAf-qFc-sykkNFjlcr-42">
          <mxGeometry relative="1" as="geometry" />
        </mxCell>
        <mxCell id="WSpAf-qFc-sykkNFjlcr-35" value="&lt;span style=&quot;font-size: 18px;&quot;&gt;根据Agent中上传的自定义函数信息,获取自定义函数;&lt;br&gt;将自定义函数注册到对应数据库类型中&lt;br&gt;&lt;/span&gt;" style="rounded=0;whiteSpace=wrap;html=1;" vertex="1" parent="1">
          <mxGeometry x="1500" y="2150" width="360" height="80" as="geometry" />
        </mxCell>
        <mxCell id="WSpAf-qFc-sykkNFjlcr-41" value="&lt;font style=&quot;font-size: 18px;&quot;&gt;获取自定义函数&lt;/font&gt;" style="text;html=1;strokeColor=none;fillColor=none;align=center;verticalAlign=middle;whiteSpace=wrap;rounded=0;" vertex="1" parent="1">
          <mxGeometry x="1380" y="2120" width="140" height="30" as="geometry" />
        </mxCell>
        <mxCell id="WSpAf-qFc-sykkNFjlcr-42" value="&lt;font style=&quot;font-size: 18px;&quot;&gt;获取二次转换后的SQL；&lt;br&gt;使用 MyBatis Plus, SpringData JPA,Hibernate等专门与数据库进行交换的框架；&lt;br&gt;来执行我们转换后的SQL&lt;br&gt;&lt;/font&gt;" style="rounded=0;whiteSpace=wrap;html=1;" vertex="1" parent="1">
          <mxGeometry x="1500" y="2280" width="420" height="120" as="geometry" />
        </mxCell>
        <mxCell id="WSpAf-qFc-sykkNFjlcr-45" style="edgeStyle=orthogonalEdgeStyle;rounded=0;orthogonalLoop=1;jettySize=auto;html=1;exitX=1;exitY=0.5;exitDx=0;exitDy=0;entryX=-0.002;entryY=0.617;entryDx=0;entryDy=0;entryPerimeter=0;" edge="1" parent="1" source="WSpAf-qFc-sykkNFjlcr-44" target="WSpAf-qFc-sykkNFjlcr-1">
          <mxGeometry relative="1" as="geometry" />
        </mxCell>
        <mxCell id="WSpAf-qFc-sykkNFjlcr-44" value="&lt;font style=&quot;font-size: 18px;&quot;&gt;Web界面操作&lt;br&gt;&lt;br&gt;数据库类型以及&lt;br&gt;数据库类型驱动管理;&lt;br&gt;&lt;br&gt;数据库之间语法转换的规则；&lt;br&gt;插件新增，修改以及扩展；&lt;br&gt;&lt;br&gt;自定义函数的新增，修改以及加载&lt;br&gt;&lt;br&gt;进行统一的管理和维护&lt;/font&gt;" style="rounded=0;whiteSpace=wrap;html=1;" vertex="1" parent="1">
          <mxGeometry x="740" y="1400" width="160" height="625" as="geometry" />
        </mxCell>
        <mxCell id="WSpAf-qFc-sykkNFjlcr-46" value="&lt;font style=&quot;font-size: 18px;&quot;&gt;统一语法适配对外提供的交互有多种；让其不受限制于编程语言;&lt;br&gt;也就是任何语言开发的系统，都可以使用 语法统一适配中心 进行快速切换数据库&lt;/font&gt;" style="text;html=1;strokeColor=none;fillColor=none;align=center;verticalAlign=middle;whiteSpace=wrap;rounded=0;" vertex="1" parent="1">
          <mxGeometry x="1910" y="1860" width="210" height="70" as="geometry" />
        </mxCell>
        <mxCell id="WSpAf-qFc-sykkNFjlcr-48" value="&lt;font style=&quot;font-size: 18px;&quot;&gt;解析作用&lt;/font&gt;" style="text;html=1;strokeColor=none;fillColor=none;align=center;verticalAlign=middle;whiteSpace=wrap;rounded=0;" vertex="1" parent="1">
          <mxGeometry x="1930" y="1755" width="90" height="30" as="geometry" />
        </mxCell>
        <mxCell id="WSpAf-qFc-sykkNFjlcr-50" style="edgeStyle=orthogonalEdgeStyle;rounded=0;orthogonalLoop=1;jettySize=auto;html=1;exitX=0.5;exitY=0;exitDx=0;exitDy=0;" edge="1" parent="1" source="WSpAf-qFc-sykkNFjlcr-49">
          <mxGeometry relative="1" as="geometry">
            <mxPoint x="2240" y="1920" as="targetPoint" />
          </mxGeometry>
        </mxCell>
        <mxCell id="WSpAf-qFc-sykkNFjlcr-49" value="&lt;font style=&quot;font-size: 18px;&quot;&gt;Agent是一种代码增强技术；使用代码增强，来对执行SQL之前获取到SQL；通过 语法统一适配中心 对外提供的服务，于 语法统一适配中心提供服务&lt;/font&gt;" style="text;html=1;strokeColor=none;fillColor=none;align=center;verticalAlign=middle;whiteSpace=wrap;rounded=0;" vertex="1" parent="1">
          <mxGeometry x="2120" y="2000" width="320" height="90" as="geometry" />
        </mxCell>
        <mxCell id="WSpAf-qFc-sykkNFjlcr-51" value="&lt;font style=&quot;font-size: 18px;&quot;&gt;解释作用&lt;/font&gt;" style="text;html=1;strokeColor=none;fillColor=none;align=center;verticalAlign=middle;whiteSpace=wrap;rounded=0;" vertex="1" parent="1">
          <mxGeometry x="2290" y="1950" width="120" height="30" as="geometry" />
        </mxCell>
        <mxCell id="ExCV35i1Uj6hNEHXc7iW-1" value="&lt;font style=&quot;font-size: 18px;&quot;&gt;系统与系统之间的协议；语法统一适配中心一个 Server端服务，所有会系统很多系统之间的交互协议 来支持不同编程语言的系统&lt;/font&gt;" style="text;html=1;strokeColor=none;fillColor=none;align=center;verticalAlign=middle;whiteSpace=wrap;rounded=0;" vertex="1" parent="1">
          <mxGeometry x="1880" y="2170" width="410" height="45" as="geometry" />
        </mxCell>
        <mxCell id="ExCV35i1Uj6hNEHXc7iW-3" value="&lt;font style=&quot;font-size: 18px;&quot;&gt;解释&lt;/font&gt;" style="text;html=1;strokeColor=none;fillColor=none;align=center;verticalAlign=middle;whiteSpace=wrap;rounded=0;" vertex="1" parent="1">
          <mxGeometry x="2060" y="2100" width="60" height="30" as="geometry" />
        </mxCell>
        <mxCell id="ExCV35i1Uj6hNEHXc7iW-11" style="edgeStyle=orthogonalEdgeStyle;rounded=0;orthogonalLoop=1;jettySize=auto;html=1;exitX=0;exitY=0.3333333333333333;exitDx=0;exitDy=0;exitPerimeter=0;entryX=0.956;entryY=0.538;entryDx=0;entryDy=0;entryPerimeter=0;" edge="1" parent="1" source="ExCV35i1Uj6hNEHXc7iW-4" target="WSpAf-qFc-sykkNFjlcr-13">
          <mxGeometry relative="1" as="geometry" />
        </mxCell>
        <mxCell id="ExCV35i1Uj6hNEHXc7iW-4" value="Actor" style="shape=umlActor;verticalLabelPosition=bottom;verticalAlign=top;html=1;outlineConnect=0;" vertex="1" parent="1">
          <mxGeometry x="2750" y="1600" width="130" height="120" as="geometry" />
        </mxCell>
        <mxCell id="ExCV35i1Uj6hNEHXc7iW-14" style="edgeStyle=orthogonalEdgeStyle;rounded=0;orthogonalLoop=1;jettySize=auto;html=1;exitX=0;exitY=0.3333333333333333;exitDx=0;exitDy=0;exitPerimeter=0;entryX=0.875;entryY=0.5;entryDx=0;entryDy=0;entryPerimeter=0;" edge="1" parent="1" source="ExCV35i1Uj6hNEHXc7iW-13" target="WSpAf-qFc-sykkNFjlcr-14">
          <mxGeometry relative="1" as="geometry" />
        </mxCell>
        <mxCell id="ExCV35i1Uj6hNEHXc7iW-13" value="Actor" style="shape=umlActor;verticalLabelPosition=bottom;verticalAlign=top;html=1;outlineConnect=0;" vertex="1" parent="1">
          <mxGeometry x="2765" y="1800" width="130" height="120" as="geometry" />
        </mxCell>
        <mxCell id="ExCV35i1Uj6hNEHXc7iW-16" style="edgeStyle=orthogonalEdgeStyle;rounded=0;orthogonalLoop=1;jettySize=auto;html=1;exitX=0;exitY=0.3333333333333333;exitDx=0;exitDy=0;exitPerimeter=0;entryX=0.875;entryY=0.5;entryDx=0;entryDy=0;entryPerimeter=0;" edge="1" parent="1" source="ExCV35i1Uj6hNEHXc7iW-15" target="WSpAf-qFc-sykkNFjlcr-12">
          <mxGeometry relative="1" as="geometry" />
        </mxCell>
        <mxCell id="ExCV35i1Uj6hNEHXc7iW-15" value="Actor" style="shape=umlActor;verticalLabelPosition=bottom;verticalAlign=top;html=1;outlineConnect=0;" vertex="1" parent="1">
          <mxGeometry x="2730" y="1380" width="130" height="120" as="geometry" />
        </mxCell>
      </root>
    </mxGraphModel>
  </diagram>
</mxfile>
